<?xml version="1.0" encoding="utf-8" ?>
<svg baseProfile="tiny" height="350" version="1.2" width="350" xmlns="http://www.w3.org/2000/svg" xmlns:ev="http://www.w3.org/2001/xml-events" xmlns:xlink="http://www.w3.org/1999/xlink"><defs /><rect fill="none" height="350" stroke="#222" stroke-width="6.0" width="350" x="0" y="0" /><line stroke="#222" stroke-width="5.0" x1="0.0" x2="0.0" y1="0.0" y2="160.0" /><line stroke="#222" stroke-width="1.5" x1="-3.0" x2="3.0" y1="70.0" y2="70.0" /><line stroke="#222" stroke-width="1.5" x1="-3.0" x2="3.0" y1="90.0" y2="90.0" /><line stroke="#222" stroke-width="5.0" x1="140.0" x2="140.0" y1="0.0" y2="160.0" /><line stroke="#222" stroke-width="1.5" x1="137.0" x2="143.0" y1="70.0" y2="70.0" /><line stroke="#222" stroke-width="1.5" x1="137.0" x2="143.0" y1="90.0" y2="90.0" /><line stroke="#222" stroke-width="5.0" x1="0.0" x2="140.0" y1="0.0" y2="0.0" /><line stroke="#222" stroke-width="1.5" x1="60.0" x2="60.0" y1="-3.0" y2="3.0" /><line stroke="#222" stroke-width="1.5" x1="80.0" x2="80.0" y1="-3.0" y2="3.0" /><line stroke="#222" stroke-width="5.0" x1="0.0" x2="140.0" y1="160.0" y2="160.0" /><line stroke="#222" stroke-width="1.5" x1="60.0" x2="60.0" y1="157.0" y2="163.0" /><line stroke="#222" stroke-width="1.5" x1="80.0" x2="80.0" y1="157.0" y2="163.0" /><line stroke="#222" stroke-width="5.0" x1="160.0" x2="160.0" y1="0.0" y2="120.0" /><line stroke="#222" stroke-width="1.5" x1="157.0" x2="163.0" y1="50.0" y2="50.0" /><line stroke="#222" stroke-width="1.5" x1="157.0" x2="163.0" y1="70.0" y2="70.0" /><line stroke="#222" stroke-width="5.0" x1="260.0" x2="260.0" y1="0.0" y2="120.0" /><line stroke="#222" stroke-width="1.5" x1="257.0" x2="263.0" y1="50.0" y2="50.0" /><line stroke="#222" stroke-width="1.5" x1="257.0" x2="263.0" y1="70.0" y2="70.0" /><line stroke="#222" stroke-width="5.0" x1="160.0" x2="260.0" y1="0.0" y2="0.0" /><line stroke="#222" stroke-width="1.5" x1="200.0" x2="200.0" y1="-3.0" y2="3.0" /><line stroke="#222" stroke-width="1.5" x1="220.0" x2="220.0" y1="-3.0" y2="3.0" /><line stroke="#222" stroke-width="5.0" x1="160.0" x2="260.0" y1="120.0" y2="120.0" /><line stroke="#222" stroke-width="1.5" x1="200.0" x2="200.0" y1="117.0" y2="123.0" /><line stroke="#222" stroke-width="1.5" x1="220.0" x2="220.0" y1="117.0" y2="123.0" /><line stroke="#222" stroke-width="5.0" x1="0.0" x2="0.0" y1="180.0" y2="300.0" /><line stroke="#222" stroke-width="1.5" x1="-3.0" x2="3.0" y1="230.0" y2="230.0" /><line stroke="#222" stroke-width="1.5" x1="-3.0" x2="3.0" y1="250.0" y2="250.0" /><line stroke="#222" stroke-width="5.0" x1="120.0" x2="120.0" y1="180.0" y2="300.0" /><line stroke="#222" stroke-width="1.5" x1="117.0" x2="123.0" y1="230.0" y2="230.0" /><line stroke="#222" stroke-width="1.5" x1="117.0" x2="123.0" y1="250.0" y2="250.0" /><line stroke="#222" stroke-width="5.0" x1="0.0" x2="120.0" y1="180.0" y2="180.0" /><line stroke="#222" stroke-width="1.5" x1="50.0" x2="50.0" y1="177.0" y2="183.0" /><line stroke="#222" stroke-width="1.5" x1="70.0" x2="70.0" y1="177.0" y2="183.0" /><line stroke="#222" stroke-width="5.0" x1="0.0" x2="120.0" y1="300.0" y2="300.0" /><line stroke="#222" stroke-width="1.5" x1="50.0" x2="50.0" y1="297.0" y2="303.0" /><line stroke="#222" stroke-width="1.5" x1="70.0" x2="70.0" y1="297.0" y2="303.0" /><rect fill="none" height="160.0" stroke="none" width="140.0" x="0.0" y="0.0" /><rect fill="none" height="120.0" stroke="none" width="100.0" x="160.0" y="0.0" /><rect fill="none" height="120.0" stroke="none" width="120.0" x="0.0" y="180.0" /><text fill="#000" font-family="Arial" font-size="10" font-weight="bold" text-anchor="middle" x="70.0" y="71.0">Living Room</text><text fill="#000" font-family="Arial" font-size="9" text-anchor="middle" x="70.0" y="81.8">14 x 16  •  224 ft²</text><text fill="#000" font-family="Arial" font-size="10" font-weight="bold" text-anchor="middle" x="210.0" y="51.0">Kitchen</text><text fill="#000" font-family="Arial" font-size="9" text-anchor="middle" x="210.0" y="61.8">10 x 12  •  120 ft²</text><text fill="#000" font-family="Arial" font-size="10" font-weight="bold" text-anchor="middle" x="60.0" y="231.0">Bedroom</text><text fill="#000" font-family="Arial" font-size="9" text-anchor="middle" x="60.0" y="241.8">12 x 12  •  144 ft²</text><line stroke="#222" stroke-width="1" x1="0" x2="350" y1="-6.0" y2="-6.0" /><text fill="#000" font-size="9" text-anchor="middle" x="175.0" y="-8.0">35'</text><line stroke="#222" stroke-width="1" x1="-6.0" x2="-6.0" y1="0" y2="350" /><text fill="#000" font-size="9" text-anchor="end" x="-8.0" y="175.0">35'</text><line stroke="#222" stroke-width="2" x1="0" x2="100" y1="358.0" y2="358.0" /><line stroke="#222" stroke-width="1" x1="0" x2="0" y1="354.0" y2="362.0" /><line stroke="#222" stroke-width="1" x1="20" x2="20" y1="354.0" y2="362.0" /><line stroke="#222" stroke-width="1" x1="40" x2="40" y1="354.0" y2="362.0" /><line stroke="#222" stroke-width="1" x1="60" x2="60" y1="354.0" y2="362.0" /><line stroke="#222" stroke-width="1" x1="80" x2="80" y1="354.0" y2="362.0" /><line stroke="#222" stroke-width="1" x1="100" x2="100" y1="354.0" y2="362.0" /><text fill="#000" font-size="9" text-anchor="middle" x="50.0" y="372.0">0   10 ft</text><polygon fill="#222" points="120,346.0 114,358.0 126,358.0" /><text fill="#000" font-size="9" text-anchor="middle" x="120" y="372.0">N</text><text fill="#000" font-size="10" x="0" y="370.0">Generated Plan</text></svg>