<?xml version="1.0" encoding="utf-8" ?>
<svg baseProfile="tiny" height="400.0" version="1.2" width="400.0" xmlns="http://www.w3.org/2000/svg" xmlns:ev="http://www.w3.org/2001/xml-events" xmlns:xlink="http://www.w3.org/1999/xlink"><defs /><rect fill="none" height="400.0" stroke="#222" stroke-width="6.0" width="400.0" x="0" y="0" /><line stroke="#222" stroke-width="5.0" x1="20.0" x2="20.0" y1="20.0" y2="130.0" /><line stroke="#222" stroke-width="1.5" x1="17.0" x2="23.0" y1="65.0" y2="65.0" /><line stroke="#222" stroke-width="1.5" x1="17.0" x2="23.0" y1="85.0" y2="85.0" /><line stroke="#222" stroke-width="5.0" x1="100.0" x2="100.0" y1="20.0" y2="130.0" /><line stroke="#222" stroke-width="1.5" x1="97.0" x2="103.0" y1="65.0" y2="65.0" /><line stroke="#222" stroke-width="1.5" x1="97.0" x2="103.0" y1="85.0" y2="85.0" /><line stroke="#222" stroke-width="5.0" x1="20.0" x2="100.0" y1="20.0" y2="20.0" /><line stroke="#222" stroke-width="5.0" x1="20.0" x2="100.0" y1="130.0" y2="130.0" /><line stroke="#222" stroke-width="5.0" x1="210.0" x2="210.0" y1="20.0" y2="170.0" /><line stroke="#222" stroke-width="1.5" x1="207.0" x2="213.0" y1="85.0" y2="85.0" /><line stroke="#222" stroke-width="1.5" x1="207.0" x2="213.0" y1="105.0" y2="105.0" /><line stroke="#222" stroke-width="5.0" x1="360.0" x2="360.0" y1="20.0" y2="170.0" /><line stroke="#222" stroke-width="1.5" x1="357.0" x2="363.0" y1="85.0" y2="85.0" /><line stroke="#222" stroke-width="1.5" x1="357.0" x2="363.0" y1="105.0" y2="105.0" /><line stroke="#222" stroke-width="5.0" x1="210.0" x2="360.0" y1="20.0" y2="20.0" /><line stroke="#222" stroke-width="1.5" x1="275.0" x2="275.0" y1="17.0" y2="23.0" /><line stroke="#222" stroke-width="1.5" x1="295.0" x2="295.0" y1="17.0" y2="23.0" /><line stroke="#222" stroke-width="5.0" x1="210.0" x2="360.0" y1="170.0" y2="170.0" /><line stroke="#222" stroke-width="1.5" x1="275.0" x2="275.0" y1="167.0" y2="173.0" /><line stroke="#222" stroke-width="1.5" x1="295.0" x2="295.0" y1="167.0" y2="173.0" /><line stroke="#222" stroke-width="5.0" x1="20.0" x2="20.0" y1="210.0" y2="370.0" /><line stroke="#222" stroke-width="1.5" x1="17.0" x2="23.0" y1="280.0" y2="280.0" /><line stroke="#222" stroke-width="1.5" x1="17.0" x2="23.0" y1="300.0" y2="300.0" /><line stroke="#222" stroke-width="5.0" x1="160.0" x2="160.0" y1="210.0" y2="370.0" /><line stroke="#222" stroke-width="1.5" x1="157.0" x2="163.0" y1="280.0" y2="280.0" /><line stroke="#222" stroke-width="1.5" x1="157.0" x2="163.0" y1="300.0" y2="300.0" /><line stroke="#222" stroke-width="5.0" x1="20.0" x2="160.0" y1="210.0" y2="210.0" /><line stroke="#222" stroke-width="1.5" x1="80.0" x2="80.0" y1="207.0" y2="213.0" /><line stroke="#222" stroke-width="1.5" x1="100.0" x2="100.0" y1="207.0" y2="213.0" /><line stroke="#222" stroke-width="5.0" x1="20.0" x2="160.0" y1="370.0" y2="370.0" /><line stroke="#222" stroke-width="1.5" x1="80.0" x2="80.0" y1="367.0" y2="373.0" /><line stroke="#222" stroke-width="1.5" x1="100.0" x2="100.0" y1="367.0" y2="373.0" /><line stroke="#222" stroke-width="5.0" x1="210.0" x2="210.0" y1="210.0" y2="350.0" /><line stroke="#222" stroke-width="1.5" x1="207.0" x2="213.0" y1="270.0" y2="270.0" /><line stroke="#222" stroke-width="1.5" x1="207.0" x2="213.0" y1="290.0" y2="290.0" /><line stroke="#222" stroke-width="5.0" x1="350.0" x2="350.0" y1="210.0" y2="350.0" /><line stroke="#222" stroke-width="1.5" x1="347.0" x2="353.0" y1="270.0" y2="270.0" /><line stroke="#222" stroke-width="1.5" x1="347.0" x2="353.0" y1="290.0" y2="290.0" /><line stroke="#222" stroke-width="5.0" x1="210.0" x2="350.0" y1="210.0" y2="210.0" /><line stroke="#222" stroke-width="1.5" x1="270.0" x2="270.0" y1="207.0" y2="213.0" /><line stroke="#222" stroke-width="1.5" x1="290.0" x2="290.0" y1="207.0" y2="213.0" /><line stroke="#222" stroke-width="5.0" x1="210.0" x2="350.0" y1="350.0" y2="350.0" /><line stroke="#222" stroke-width="1.5" x1="270.0" x2="270.0" y1="347.0" y2="353.0" /><line stroke="#222" stroke-width="1.5" x1="290.0" x2="290.0" y1="347.0" y2="353.0" /><rect fill="none" height="110.0" stroke="none" width="80.0" x="20.0" y="20.0" /><rect fill="none" height="150.0" stroke="none" width="150.0" x="210.0" y="20.0" /><rect fill="none" height="160.0" stroke="none" width="140.0" x="20.0" y="210.0" /><rect fill="none" height="140.0" stroke="none" width="140.0" x="210.0" y="210.0" /><text fill="#000" font-family="Arial" font-size="10" font-weight="bold" text-anchor="middle" x="60.0" y="66.0">Bathroom</text><text fill="#000" font-family="Arial" font-size="9" text-anchor="middle" x="60.0" y="76.8">8 x 11  •  88 ft²</text><text fill="#000" font-family="Arial" font-size="10" font-weight="bold" text-anchor="middle" x="285.0" y="86.0">Living Room</text><text fill="#000" font-family="Arial" font-size="9" text-anchor="middle" x="285.0" y="96.8">15 x 15  •  225 ft²</text><text fill="#000" font-family="Arial" font-size="10" font-weight="bold" text-anchor="middle" x="90.0" y="281.0">Kitchen</text><text fill="#000" font-family="Arial" font-size="9" text-anchor="middle" x="90.0" y="291.8">14 x 16  •  224 ft²</text><text fill="#000" font-family="Arial" font-size="10" font-weight="bold" text-anchor="middle" x="280.0" y="271.0">Bedroom</text><text fill="#000" font-family="Arial" font-size="9" text-anchor="middle" x="280.0" y="281.8">14 x 14  •  196 ft²</text><line stroke="#222" stroke-width="1" x1="0" x2="400.0" y1="-6.0" y2="-6.0" /><text fill="#000" font-size="9" text-anchor="middle" x="200.0" y="-8.0">40'</text><line stroke="#222" stroke-width="1" x1="-6.0" x2="-6.0" y1="0" y2="400.0" /><text fill="#000" font-size="9" text-anchor="end" x="-8.0" y="200.0">40'</text><line stroke="#222" stroke-width="2" x1="0" x2="100" y1="408.0" y2="408.0" /><line stroke="#222" stroke-width="1" x1="0" x2="0" y1="404.0" y2="412.0" /><line stroke="#222" stroke-width="1" x1="20" x2="20" y1="404.0" y2="412.0" /><line stroke="#222" stroke-width="1" x1="40" x2="40" y1="404.0" y2="412.0" /><line stroke="#222" stroke-width="1" x1="60" x2="60" y1="404.0" y2="412.0" /><line stroke="#222" stroke-width="1" x1="80" x2="80" y1="404.0" y2="412.0" /><line stroke="#222" stroke-width="1" x1="100" x2="100" y1="404.0" y2="412.0" /><text fill="#000" font-size="9" text-anchor="middle" x="50.0" y="422.0">0   10 ft</text><polygon fill="#222" points="120,396.0 114,408.0 126,408.0" /><text fill="#000" font-size="9" text-anchor="middle" x="120" y="422.0">N</text><text fill="#000" font-size="10" x="0" y="420.0">Generated Plan</text></svg>