<?xml version="1.0" encoding="utf-8" ?>
<svg baseProfile="tiny" height="450" version="1.2" width="500" xmlns="http://www.w3.org/2000/svg" xmlns:ev="http://www.w3.org/2001/xml-events" xmlns:xlink="http://www.w3.org/1999/xlink"><defs /><rect fill="none" height="450" stroke="#222" stroke-width="6.0" width="500" x="0" y="0" /><line stroke="#222" stroke-width="5.0" x1="230.0" x2="230.0" y1="20.0" y2="340.0" /><line stroke="#222" stroke-width="1.5" x1="227.0" x2="233.0" y1="170.0" y2="170.0" /><line stroke="#222" stroke-width="1.5" x1="227.0" x2="233.0" y1="190.0" y2="190.0" /><line stroke="#222" stroke-width="5.0" x1="270.0" x2="270.0" y1="20.0" y2="340.0" /><line stroke="#222" stroke-width="1.5" x1="267.0" x2="273.0" y1="170.0" y2="170.0" /><line stroke="#222" stroke-width="1.5" x1="267.0" x2="273.0" y1="190.0" y2="190.0" /><line stroke="#222" stroke-width="5.0" x1="230.0" x2="270.0" y1="20.0" y2="20.0" /><line stroke="#222" stroke-width="5.0" x1="230.0" x2="270.0" y1="340.0" y2="340.0" /><line stroke="#222" stroke-width="5.0" x1="0.0" x2="0.0" y1="20.0" y2="160.0" /><line stroke="#222" stroke-width="1.5" x1="-3.0" x2="3.0" y1="80.0" y2="80.0" /><line stroke="#222" stroke-width="1.5" x1="-3.0" x2="3.0" y1="100.0" y2="100.0" /><line stroke="#222" stroke-width="5.0" x1="120.0" x2="120.0" y1="20.0" y2="160.0" /><line stroke="#222" stroke-width="1.5" x1="117.0" x2="123.0" y1="80.0" y2="80.0" /><line stroke="#222" stroke-width="1.5" x1="117.0" x2="123.0" y1="100.0" y2="100.0" /><line stroke="#222" stroke-width="5.0" x1="0.0" x2="120.0" y1="20.0" y2="20.0" /><line stroke="#222" stroke-width="1.5" x1="50.0" x2="50.0" y1="17.0" y2="23.0" /><line stroke="#222" stroke-width="1.5" x1="70.0" x2="70.0" y1="17.0" y2="23.0" /><line stroke="#222" stroke-width="5.0" x1="0.0" x2="120.0" y1="160.0" y2="160.0" /><line stroke="#222" stroke-width="1.5" x1="50.0" x2="50.0" y1="157.0" y2="163.0" /><line stroke="#222" stroke-width="1.5" x1="70.0" x2="70.0" y1="157.0" y2="163.0" /><line stroke="#222" stroke-width="5.0" x1="290.0" x2="290.0" y1="180.0" y2="320.0" /><line stroke="#222" stroke-width="1.5" x1="287.0" x2="293.0" y1="240.0" y2="240.0" /><line stroke="#222" stroke-width="1.5" x1="287.0" x2="293.0" y1="260.0" y2="260.0" /><line stroke="#222" stroke-width="5.0" x1="410.0" x2="410.0" y1="180.0" y2="320.0" /><line stroke="#222" stroke-width="1.5" x1="407.0" x2="413.0" y1="240.0" y2="240.0" /><line stroke="#222" stroke-width="1.5" x1="407.0" x2="413.0" y1="260.0" y2="260.0" /><line stroke="#222" stroke-width="5.0" x1="290.0" x2="410.0" y1="180.0" y2="180.0" /><line stroke="#222" stroke-width="1.5" x1="340.0" x2="340.0" y1="177.0" y2="183.0" /><line stroke="#222" stroke-width="1.5" x1="360.0" x2="360.0" y1="177.0" y2="183.0" /><line stroke="#222" stroke-width="5.0" x1="390.0" x2="410.0" y1="320.0" y2="320.0" /><line stroke="#222" stroke-width="5.0" x1="0.0" x2="0.0" y1="180.0" y2="300.0" /><line stroke="#222" stroke-width="1.5" x1="-3.0" x2="3.0" y1="230.0" y2="230.0" /><line stroke="#222" stroke-width="1.5" x1="-3.0" x2="3.0" y1="250.0" y2="250.0" /><line stroke="#222" stroke-width="5.0" x1="120.0" x2="120.0" y1="180.0" y2="300.0" /><line stroke="#222" stroke-width="1.5" x1="117.0" x2="123.0" y1="230.0" y2="230.0" /><line stroke="#222" stroke-width="1.5" x1="117.0" x2="123.0" y1="250.0" y2="250.0" /><line stroke="#222" stroke-width="5.0" x1="0.0" x2="120.0" y1="180.0" y2="180.0" /><line stroke="#222" stroke-width="1.5" x1="50.0" x2="50.0" y1="177.0" y2="183.0" /><line stroke="#222" stroke-width="1.5" x1="70.0" x2="70.0" y1="177.0" y2="183.0" /><line stroke="#222" stroke-width="5.0" x1="0.0" x2="120.0" y1="300.0" y2="300.0" /><line stroke="#222" stroke-width="1.5" x1="50.0" x2="50.0" y1="297.0" y2="303.0" /><line stroke="#222" stroke-width="1.5" x1="70.0" x2="70.0" y1="297.0" y2="303.0" /><line stroke="#222" stroke-width="5.0" x1="290.0" x2="290.0" y1="320.0" y2="440.0" /><line stroke="#222" stroke-width="1.5" x1="287.0" x2="293.0" y1="370.0" y2="370.0" /><line stroke="#222" stroke-width="1.5" x1="287.0" x2="293.0" y1="390.0" y2="390.0" /><line stroke="#222" stroke-width="5.0" x1="390.0" x2="390.0" y1="320.0" y2="440.0" /><line stroke="#222" stroke-width="1.5" x1="387.0" x2="393.0" y1="370.0" y2="370.0" /><line stroke="#222" stroke-width="1.5" x1="387.0" x2="393.0" y1="390.0" y2="390.0" /><line stroke="#222" stroke-width="5.0" x1="290.0" x2="390.0" y1="440.0" y2="440.0" /><line stroke="#222" stroke-width="1.5" x1="330.0" x2="330.0" y1="437.0" y2="443.0" /><line stroke="#222" stroke-width="1.5" x1="350.0" x2="350.0" y1="437.0" y2="443.0" /><line stroke="#222" stroke-width="5.0" x1="0.0" x2="0.0" y1="320.0" y2="400.0" /><line stroke="#222" stroke-width="5.0" x1="60.0" x2="60.0" y1="320.0" y2="400.0" /><line stroke="#222" stroke-width="5.0" x1="0.0" x2="60.0" y1="320.0" y2="320.0" /><line stroke="#222" stroke-width="5.0" x1="0.0" x2="60.0" y1="400.0" y2="400.0" /><rect fill="none" height="320.0" stroke="none" width="40.0" x="230.0" y="20.0" /><rect fill="none" height="140.0" stroke="none" width="120.0" x="0.0" y="20.0" /><rect fill="none" height="140.0" stroke="none" width="120.0" x="290.0" y="180.0" /><rect fill="none" height="120.0" stroke="none" width="120.0" x="0.0" y="180.0" /><rect fill="none" height="120.0" stroke="none" width="100.0" x="290.0" y="320.0" /><rect fill="none" height="80.0" stroke="none" width="60.0" x="0.0" y="320.0" /><line stroke="#222" stroke-width="3.5" x1="290.0" x2="325.0" y1="320.0" y2="320.0" /><line stroke="#222" stroke-width="3.5" x1="355.0" x2="390.0" y1="320.0" y2="320.0" /><line stroke="#222" stroke-width="2.45" x1="325.0" x2="325.0" y1="320.0" y2="335.0" /><path d="M 325.0,320.0 A 15.0,15.0 0 0,1 340.0,320.0" fill="none" stroke="#222" stroke-width="1.75" /><text fill="#000" font-family="Arial" font-size="10" font-weight="bold" text-anchor="middle" x="250.0" y="171.0">Hallway</text><text fill="#000" font-family="Arial" font-size="9" text-anchor="middle" x="250.0" y="181.8">4 x 32  •  128 ft²</text><text fill="#000" font-family="Arial" font-size="10" font-weight="bold" text-anchor="middle" x="60.0" y="81.0">Living Room</text><text fill="#000" font-family="Arial" font-size="9" text-anchor="middle" x="60.0" y="91.8">12 x 14  •  168 ft²</text><text fill="#000" font-family="Arial" font-size="10" font-weight="bold" text-anchor="middle" x="350.0" y="241.0">Kitchen</text><text fill="#000" font-family="Arial" font-size="9" text-anchor="middle" x="350.0" y="251.8">12 x 14  •  168 ft²</text><text fill="#000" font-family="Arial" font-size="10" font-weight="bold" text-anchor="middle" x="60.0" y="231.0">Bedroom</text><text fill="#000" font-family="Arial" font-size="9" text-anchor="middle" x="60.0" y="241.8">12 x 12  •  144 ft²</text><text fill="#000" font-family="Arial" font-size="10" font-weight="bold" text-anchor="middle" x="340.0" y="371.0">Bedroom</text><text fill="#000" font-family="Arial" font-size="9" text-anchor="middle" x="340.0" y="381.8">10 x 12  •  120 ft²</text><text fill="#000" font-family="Arial" font-size="10" font-weight="bold" text-anchor="middle" x="30.0" y="351.0">Bathroom</text><text fill="#000" font-family="Arial" font-size="9" text-anchor="middle" x="30.0" y="361.8">6 x 8  •  48 ft²</text><line stroke="#222" stroke-width="1" x1="0" x2="500" y1="-6.0" y2="-6.0" /><text fill="#000" font-size="9" text-anchor="middle" x="250.0" y="-8.0">50'</text><line stroke="#222" stroke-width="1" x1="-6.0" x2="-6.0" y1="0" y2="450" /><text fill="#000" font-size="9" text-anchor="end" x="-8.0" y="225.0">45'</text><line stroke="#222" stroke-width="2" x1="0" x2="100" y1="458.0" y2="458.0" /><line stroke="#222" stroke-width="1" x1="0" x2="0" y1="454.0" y2="462.0" /><line stroke="#222" stroke-width="1" x1="20" x2="20" y1="454.0" y2="462.0" /><line stroke="#222" stroke-width="1" x1="40" x2="40" y1="454.0" y2="462.0" /><line stroke="#222" stroke-width="1" x1="60" x2="60" y1="454.0" y2="462.0" /><line stroke="#222" stroke-width="1" x1="80" x2="80" y1="454.0" y2="462.0" /><line stroke="#222" stroke-width="1" x1="100" x2="100" y1="454.0" y2="462.0" /><text fill="#000" font-size="9" text-anchor="middle" x="50.0" y="472.0">0   10 ft</text><polygon fill="#222" points="120,446.0 114,458.0 126,458.0" /><text fill="#000" font-size="9" text-anchor="middle" x="120" y="472.0">N</text><text fill="#000" font-size="10" x="0" y="470.0">Generated Plan</text></svg>