<?xml version="1.0" encoding="utf-8" ?>
<svg baseProfile="tiny" height="400.0" version="1.2" width="400.0" xmlns="http://www.w3.org/2000/svg" xmlns:ev="http://www.w3.org/2001/xml-events" xmlns:xlink="http://www.w3.org/1999/xlink"><defs /><rect fill="none" height="400.0" stroke="#222" stroke-width="6.0" width="400.0" x="0" y="0" /><line stroke="#222" stroke-width="5.0" x1="220.0" x2="220.0" y1="120.0" y2="280.0" /><line stroke="#222" stroke-width="1.5" x1="217.0" x2="223.0" y1="190.0" y2="190.0" /><line stroke="#222" stroke-width="1.5" x1="217.0" x2="223.0" y1="210.0" y2="210.0" /><line stroke="#222" stroke-width="5.0" x1="360.0" x2="360.0" y1="120.0" y2="280.0" /><line stroke="#222" stroke-width="1.5" x1="357.0" x2="363.0" y1="190.0" y2="190.0" /><line stroke="#222" stroke-width="1.5" x1="357.0" x2="363.0" y1="210.0" y2="210.0" /><line stroke="#222" stroke-width="5.0" x1="220.0" x2="360.0" y1="120.0" y2="120.0" /><line stroke="#222" stroke-width="1.5" x1="280.0" x2="280.0" y1="117.0" y2="123.0" /><line stroke="#222" stroke-width="1.5" x1="300.0" x2="300.0" y1="117.0" y2="123.0" /><line stroke="#222" stroke-width="5.0" x1="240.0" x2="360.0" y1="280.0" y2="280.0" /><line stroke="#222" stroke-width="1.5" x1="290.0" x2="290.0" y1="277.0" y2="283.0" /><line stroke="#222" stroke-width="1.5" x1="310.0" x2="310.0" y1="277.0" y2="283.0" /><line stroke="#222" stroke-width="5.0" x1="0.0" x2="0.0" y1="142.0" y2="142.0" /><line stroke="#222" stroke-width="5.0" x1="140.0" x2="140.0" y1="142.0" y2="142.0" /><line stroke="#222" stroke-width="5.0" x1="160.0" x2="160.0" y1="280.0" y2="360.0" /><line stroke="#222" stroke-width="5.0" x1="240.0" x2="240.0" y1="280.0" y2="360.0" /><line stroke="#222" stroke-width="5.0" x1="160.0" x2="220.0" y1="280.0" y2="280.0" /><line stroke="#222" stroke-width="5.0" x1="160.0" x2="240.0" y1="360.0" y2="360.0" /><rect fill="none" height="160.0" stroke="none" width="140.0" x="220.0" y="120.0" /><rect fill="none" height="140.0" stroke="none" width="140.0" x="0.0" y="0.0" /><rect fill="none" height="140.0" stroke="none" width="140.0" x="0.0" y="142.0" /><rect fill="none" height="140.0" stroke="none" width="140.0" x="0.0" y="142.0" /><rect fill="none" height="140.0" stroke="none" width="140.0" x="0.0" y="142.0" /><rect fill="none" height="140.0" stroke="none" width="140.0" x="0.0" y="0.0" /><rect fill="none" height="80.0" stroke="none" width="80.0" x="160.0" y="280.0" /><line stroke="#222" stroke-width="2.45" x1="215.0" x2="215.0" y1="280.0" y2="295.0" /><path d="M 215.0,280.0 A 15.0,15.0 0 0,1 230.0,280.0" fill="none" stroke="#222" stroke-width="1.75" /><line stroke="#222" stroke-width="3.5" x1="0.0" x2="0.0" y1="0.0" y2="55.0" /><line stroke="#222" stroke-width="3.5" x1="0.0" x2="0.0" y1="85.0" y2="140.0" /><line stroke="#222" stroke-width="2.45" x1="0.0" x2="15.0" y1="55.0" y2="55.0" /><path d="M 0.0,55.0 A 15.0,15.0 0 0,1 0.0,70.0" fill="none" stroke="#222" stroke-width="1.75" /><line stroke="#222" stroke-width="3.5" x1="140.0" x2="140.0" y1="0.0" y2="55.0" /><line stroke="#222" stroke-width="3.5" x1="140.0" x2="140.0" y1="85.0" y2="140.0" /><line stroke="#222" stroke-width="2.45" x1="140.0" x2="155.0" y1="55.0" y2="55.0" /><path d="M 140.0,55.0 A 15.0,15.0 0 0,1 140.0,70.0" fill="none" stroke="#222" stroke-width="1.75" /><line stroke="#222" stroke-width="3.5" x1="0.0" x2="55.0" y1="0.0" y2="0.0" /><line stroke="#222" stroke-width="3.5" x1="85.0" x2="140.0" y1="0.0" y2="0.0" /><line stroke="#222" stroke-width="2.45" x1="55.0" x2="55.0" y1="0.0" y2="15.0" /><path d="M 55.0,0.0 A 15.0,15.0 0 0,1 70.0,0.0" fill="none" stroke="#222" stroke-width="1.75" /><line stroke="#222" stroke-width="3.5" x1="0.0" x2="55.0" y1="140.0" y2="140.0" /><line stroke="#222" stroke-width="3.5" x1="85.0" x2="140.0" y1="140.0" y2="140.0" /><line stroke="#222" stroke-width="2.45" x1="55.0" x2="55.0" y1="140.0" y2="155.0" /><path d="M 55.0,140.0 A 15.0,15.0 0 0,1 70.0,140.0" fill="none" stroke="#222" stroke-width="1.75" /><line stroke="#222" stroke-width="3.5" x1="0.0" x2="0.0" y1="142.0" y2="197.0" /><line stroke="#222" stroke-width="3.5" x1="0.0" x2="0.0" y1="227.0" y2="282.0" /><line stroke="#222" stroke-width="2.45" x1="0.0" x2="15.0" y1="197.0" y2="197.0" /><path d="M 0.0,196.99999999999795 A 15.0,15.0 0 0,1 0.0,211.99999999999795" fill="none" stroke="#222" stroke-width="1.75" /><line stroke="#222" stroke-width="3.5" x1="140.0" x2="140.0" y1="142.0" y2="197.0" /><line stroke="#222" stroke-width="3.5" x1="140.0" x2="140.0" y1="227.0" y2="282.0" /><line stroke="#222" stroke-width="2.45" x1="140.0" x2="155.0" y1="197.0" y2="197.0" /><path d="M 140.0,196.99999999999795 A 15.0,15.0 0 0,1 140.0,211.99999999999795" fill="none" stroke="#222" stroke-width="1.75" /><line stroke="#222" stroke-width="3.5" x1="0.0" x2="55.0" y1="142.0" y2="142.0" /><line stroke="#222" stroke-width="3.5" x1="85.0" x2="140.0" y1="142.0" y2="142.0" /><line stroke="#222" stroke-width="2.45" x1="55.0" x2="55.0" y1="142.0" y2="157.0" /><path d="M 55.0,141.99999999999596 A 15.0,15.0 0 0,1 70.0,141.99999999999596" fill="none" stroke="#222" stroke-width="1.75" /><line stroke="#222" stroke-width="3.5" x1="0.0" x2="55.0" y1="282.0" y2="282.0" /><line stroke="#222" stroke-width="3.5" x1="85.0" x2="140.0" y1="282.0" y2="282.0" /><line stroke="#222" stroke-width="2.45" x1="55.0" x2="55.0" y1="282.0" y2="297.0" /><path d="M 55.0,281.99999999999596 A 15.0,15.0 0 0,1 70.0,281.99999999999596" fill="none" stroke="#222" stroke-width="1.75" /><text fill="#000" font-family="Arial" font-size="10" font-weight="bold" text-anchor="middle" x="290.0" y="191.0">Bonus Room</text><text fill="#000" font-family="Arial" font-size="9" text-anchor="middle" x="290.0" y="201.8">14 x 16  •  224 ft²</text><text fill="#000" font-family="Arial" font-size="10" font-weight="bold" text-anchor="middle" x="70.0" y="61.0">Bonus Room</text><text fill="#000" font-family="Arial" font-size="9" text-anchor="middle" x="70.0" y="71.8">14 x 14  •  196 ft²</text><text fill="#000" font-family="Arial" font-size="10" font-weight="bold" text-anchor="middle" x="70.0" y="203.0">Bonus Room</text><text fill="#000" font-family="Arial" font-size="9" text-anchor="middle" x="70.0" y="213.8">14 x 14  •  196 ft²</text><text fill="#000" font-family="Arial" font-size="10" font-weight="bold" text-anchor="middle" x="70.0" y="203.0">Bonus Room</text><text fill="#000" font-family="Arial" font-size="9" text-anchor="middle" x="70.0" y="213.8">14 x 14  •  196 ft²</text><text fill="#000" font-family="Arial" font-size="10" font-weight="bold" text-anchor="middle" x="70.0" y="202.99999999999596">Bonus Room</text><text fill="#000" font-family="Arial" font-size="9" text-anchor="middle" x="70.0" y="213.79999999999598">14 x 14  •  196 ft²</text><text fill="#000" font-family="Arial" font-size="10" font-weight="bold" text-anchor="middle" x="70.0" y="61.0">Bonus Room</text><text fill="#000" font-family="Arial" font-size="9" text-anchor="middle" x="70.0" y="71.8">14 x 14  •  196 ft²</text><text fill="#000" font-family="Arial" font-size="10" font-weight="bold" text-anchor="middle" x="200.0" y="311.0">Laundry Room</text><text fill="#000" font-family="Arial" font-size="9" text-anchor="middle" x="200.0" y="321.8">8 x 8  •  64 ft²</text><line stroke="#222" stroke-width="1" x1="0" x2="400.0" y1="-6.0" y2="-6.0" /><text fill="#000" font-size="9" text-anchor="middle" x="200.0" y="-8.0">40'</text><line stroke="#222" stroke-width="1" x1="-6.0" x2="-6.0" y1="0" y2="400.0" /><text fill="#000" font-size="9" text-anchor="end" x="-8.0" y="200.0">40'</text><line stroke="#222" stroke-width="2" x1="0" x2="100" y1="408.0" y2="408.0" /><line stroke="#222" stroke-width="1" x1="0" x2="0" y1="404.0" y2="412.0" /><line stroke="#222" stroke-width="1" x1="20" x2="20" y1="404.0" y2="412.0" /><line stroke="#222" stroke-width="1" x1="40" x2="40" y1="404.0" y2="412.0" /><line stroke="#222" stroke-width="1" x1="60" x2="60" y1="404.0" y2="412.0" /><line stroke="#222" stroke-width="1" x1="80" x2="80" y1="404.0" y2="412.0" /><line stroke="#222" stroke-width="1" x1="100" x2="100" y1="404.0" y2="412.0" /><text fill="#000" font-size="9" text-anchor="middle" x="50.0" y="422.0">0   10 ft</text><polygon fill="#222" points="120,396.0 114,408.0 126,408.0" /><text fill="#000" font-size="9" text-anchor="middle" x="120" y="422.0">N</text><text fill="#000" font-size="10" x="0" y="420.0">Generated Plan</text></svg>